# Blender 3.5.0
# www.blender.org
o Icosphere
v 0.000000 -0.100000 0.000000
v 0.113678 -0.100000 -0.066375
v 0.000000 -0.100000 -0.129426
v 0.186039 -0.044722 -0.013803
v 0.072361 -0.044722 0.052573
v 0.086040 -0.044722 0.018689
v 0.086040 -0.044722 -0.151440
v -0.027639 -0.044722 0.085065
v 0.186039 -0.044722 -0.118948
v -0.089443 -0.044722 -0.129426
v 0.141317 0.044722 0.018689
v -0.089443 -0.044722 0.000000
v -0.027639 -0.044722 -0.214491
v 0.072361 -0.044722 -0.181999
v 0.141317 0.044722 -0.151440
v 0.203121 0.044722 -0.066375
v 0.027639 0.044722 0.085065
v -0.072361 0.044722 -0.076854
v 0.113678 0.100000 -0.066375
v -0.072361 0.044722 0.052573
v 0.097433 -0.085065 -0.016376
v -0.072361 0.044722 -0.181999
v 0.156211 -0.085065 -0.035474
v 0.139965 -0.052574 0.014526
v -0.072361 0.044722 -0.052573
v 0.198743 -0.052574 -0.066375
v 0.027639 0.044722 -0.214491
v 0.156211 -0.085065 -0.097277
v 0.061105 -0.085065 -0.066375
v 0.000000 0.100000 -0.129426
v 0.000000 0.100000 0.000000
v 0.097433 -0.085065 -0.116375
v -0.016246 -0.085065 -0.079427
v 0.139965 -0.052574 -0.147277
v -0.016246 -0.085065 0.050000
v 0.208784 0.000000 -0.035474
v 0.042532 -0.085065 0.030901
v 0.042532 -0.085065 -0.098525
v 0.208784 0.000000 -0.097277
v 0.026287 -0.052574 0.080901
v 0.113678 0.000000 0.033625
v 0.172457 0.000000 0.014526
v 0.042532 -0.085065 -0.030901
v 0.042532 -0.085065 -0.160327
v -0.052573 -0.085065 0.000000
v -0.052573 -0.085065 -0.129426
v 0.172457 0.000000 -0.147277
v -0.068819 -0.052574 0.050000
v 0.113678 0.000000 -0.166376
v 0.182497 0.052574 -0.016376
v -0.068819 -0.052574 -0.079427
v -0.016246 -0.085065 -0.050000
v 0.087391 0.052574 0.014526
v -0.016246 -0.085065 -0.179426
v -0.068819 -0.052574 -0.050000
v 0.087391 0.052574 -0.147277
v -0.068819 -0.052574 -0.179426
v 0.182497 0.052574 -0.116375
v 0.026287 -0.052574 -0.210328
v 0.129924 0.085065 -0.016376
v 0.095106 0.000000 0.030901
v 0.166251 0.085065 -0.066375
v 0.071146 0.085065 -0.035474
v 0.071146 0.085065 -0.097277
v 0.129924 0.085065 -0.116375
v 0.000000 0.000000 0.100000
v 0.058779 0.000000 0.080902
v -0.095106 0.000000 0.030901
v -0.095106 0.000000 -0.098525
v -0.058779 0.000000 0.080902
v -0.058779 0.000000 -0.210328
v -0.095106 0.000000 -0.030901
v -0.095106 0.000000 -0.160328
v 0.058779 0.000000 -0.210328
v 0.000000 0.000000 -0.229426
v 0.068819 0.052574 0.050000
v -0.026287 0.052574 0.080901
v -0.085065 0.052574 0.000000
v -0.085065 0.052574 -0.129426
v -0.026287 0.052574 -0.210328
v 0.068819 0.052574 -0.179426
v 0.016246 0.085065 0.050000
v 0.016246 0.085065 -0.079427
v 0.052573 0.085065 0.000000
v 0.052573 0.085065 -0.129426
v -0.042532 0.085065 -0.098525
v -0.042532 0.085065 0.030901
v -0.042532 0.085065 -0.160327
v -0.042532 0.085065 -0.030901
v 0.016246 0.085065 -0.050000
v 0.016246 0.085065 -0.179426
v -0.064038 -0.027542 -0.064713
v -0.051540 -0.049279 -0.064713
v -0.004006 0.069595 -0.064713
v 0.021026 0.068137 -0.064713
v -0.031546 0.063093 -0.064713
v -0.052615 0.048087 -0.064713
v -0.066540 0.025556 -0.064713
v -0.070540 0.000000 -0.064713
v 0.031546 -0.063093 -0.064713
v 0.004006 -0.069595 -0.064713
v -0.021026 -0.068137 -0.064713
v 0.082700 -0.051112 0.009788
v 0.080578 -0.056001 0.003260
v 0.093495 -0.008435 0.025943
v 0.082958 -0.045309 0.016066
v 0.083710 -0.041376 0.018378
v 0.060775 0.068662 -0.025243
v 0.077201 0.058116 0.000000
v 0.059213 0.068926 -0.026804
v 0.047394 0.065815 -0.050000
v 0.042047 0.062836 -0.056615
v 0.036482 0.058585 -0.064713
v 0.083556 0.046963 0.014273
v 0.080555 0.051409 0.010322
v 0.094172 0.007375 0.025806
v 0.083638 0.046500 0.014526
v 0.095106 0.000000 0.027590
v 0.052903 -0.068662 -0.041133
v 0.054465 -0.068926 -0.039571
v 0.037559 -0.058811 -0.064713
v 0.071631 -0.062836 -0.009760
v 0.066284 -0.065815 -0.016376
v 0.067079 -0.066313 -0.116359
v 0.053815 -0.069805 -0.090328
v 0.095097 -0.000017 -0.160336
v 0.095098 0.000000 -0.160338
v 0.046594 0.066309 -0.079427
v 0.079878 0.051293 -0.142657
v 0.082540 0.047350 -0.146161
v 0.075579 0.059891 -0.129426
v 0.046599 0.066313 -0.079442
v 0.060235 0.069742 -0.105846
v 0.059863 0.069805 -0.105474
v 0.082902 0.045310 -0.147277
v 0.095097 0.000018 -0.160334
v 0.081896 -0.050615 -0.142539
v 0.082126 -0.045468 -0.148108
v 0.083080 -0.040472 -0.151045
v 0.079054 -0.057165 -0.133793
v 0.067084 -0.066309 -0.116375
v 0.038099 -0.059891 -0.066375
v 0.053444 -0.069742 -0.089956
vn 0.1024 -0.9435 0.3151
vn 0.7002 -0.6617 0.2680
vn -0.2680 -0.9435 0.1947
vn -0.2680 -0.9435 -0.1947
vn 0.1024 -0.9435 -0.3151
vn 0.9050 -0.3304 0.2680
vn 0.0247 -0.3304 0.9435
vn -0.8897 -0.3304 0.3151
vn -0.5746 -0.3304 -0.7488
vn 0.8026 -0.1256 0.5831
vn -0.3066 -0.1256 0.9435
vn -0.9921 -0.1256 -0.0000
vn 0.4089 0.6617 0.6284
vn -0.4713 0.6617 0.5831
vn -0.7002 0.6617 -0.2680
vn 0.0385 0.6617 -0.7488
vn 0.7240 0.6617 -0.1947
vn 0.2680 0.9435 -0.1947
vn 0.4911 0.7947 -0.3568
vn 0.4089 0.6617 -0.6284
vn -0.1024 0.9435 -0.3151
vn -0.1876 0.7947 -0.5773
vn -0.4713 0.6617 -0.5831
vn -0.3313 0.9435 -0.0000
vn -0.6071 0.7947 -0.0000
vn -0.7002 0.6617 0.2680
vn -0.1024 0.9435 0.3151
vn -0.1876 0.7947 0.5773
vn 0.0385 0.6617 0.7488
vn 0.2680 0.9435 0.1947
vn 0.4911 0.7947 0.3568
vn 0.7240 0.6617 0.1947
vn -0.5346 0.3304 -0.7779
vn -0.9050 0.3304 -0.2680
vn -0.9822 0.1876 -0.0000
vn -0.9050 0.3304 0.2680
vn -0.5346 0.3304 0.7779
vn -0.3035 0.1876 0.9342
vn -0.0247 0.3304 0.9435
vn 0.5746 0.3304 0.7488
vn 0.7947 0.1876 0.5773
vn 0.8897 0.3304 0.3151
vn -0.8026 0.1256 -0.5831
vn -0.7947 -0.1876 -0.5773
vn -0.8897 -0.3304 -0.3151
vn -0.8026 0.1256 0.5831
vn -0.7947 -0.1876 0.5773
vn -0.5746 -0.3304 0.7488
vn 0.3066 0.1256 0.9435
vn 0.3035 -0.1876 0.9342
vn 0.5346 -0.3304 0.7779
vn 0.9921 0.1256 -0.0000
vn 0.9822 -0.1876 -0.0000
vn 0.4713 -0.6617 -0.5831
vn 0.1876 -0.7947 -0.5773
vn -0.0385 -0.6617 -0.7488
vn -0.4089 -0.6617 -0.6284
vn -0.4911 -0.7947 -0.3568
vn -0.7240 -0.6617 -0.1947
vn -0.7240 -0.6617 0.1947
vn -0.4911 -0.7947 0.3568
vn -0.4089 -0.6617 0.6284
vn 0.7002 -0.6617 -0.2680
vn 0.6071 -0.7947 -0.0000
vn 0.3313 -0.9435 -0.0000
vn -0.0385 -0.6617 0.7488
vn 0.1876 -0.7947 0.5773
vn 0.4713 -0.6617 0.5831
vn 0.5346 -0.3304 -0.7779
vn -0.3066 -0.1256 -0.9435
vn 0.8026 -0.1256 -0.5831
vn 0.8897 0.3304 -0.3151
vn 0.7947 0.1873 -0.5774
vn 0.5746 0.3304 -0.7488
vn -0.0247 0.3304 -0.9435
vn -0.3035 0.1876 -0.9342
vn 0.3066 0.1256 -0.9435
vn 0.3035 -0.1876 -0.9342
vn 0.0247 -0.3304 -0.9435
vn 0.9050 -0.3304 -0.2680
vn 0.6061 -0.7954 -0.0000
vn -0.6065 0.7951 -0.0001
vn 0.7947 0.1876 -0.5773
vn 0.8026 -0.1259 -0.5831
vn -0.3065 -0.1265 -0.9434
vn -0.3036 0.1872 -0.9342
vn -0.4914 -0.7945 -0.3568
vt 0.181819 0.000000
vt 0.909091 0.000000
vt 0.727273 0.000000
vt 0.545455 0.000000
vt 0.363637 0.000000
vt 0.181819 0.000000
vt 0.909091 0.000000
vt 0.727273 0.000000
vt 0.545455 0.000000
vt 0.363637 0.000000
vt 0.181819 0.000000
vt 0.909091 0.000000
vt 0.727273 0.000000
vt 0.545455 0.000000
vt 0.363637 0.000000
vt 0.272728 0.157461
vt 0.272728 0.157461
vt 0.090910 0.157461
vt 1.000000 0.157461
vt 0.636364 0.157461
vt 1.000000 0.157461
vt 0.090910 0.157461
vt 0.454546 0.157461
vt 0.818182 0.157461
vt 0.181819 0.314921
vt 0.818182 0.157461
vt 0.636364 0.157461
vt 0.454546 0.157461
vt 0.545455 0.314921
vt 0.363637 0.314921
vt 0.181819 0.314921
vt 0.909091 0.314921
vt 0.000000 0.314921
vt 0.454546 0.472382
vt 0.636364 0.472382
vt 0.818182 0.472382
vt 0.090910 0.472382
vt 0.272728 0.472382
vt 0.000000 0.314921
vt 0.909091 0.314921
vt 0.136365 0.078731
vt 0.954545 0.078731
vt 0.727273 0.314921
vt 0.318182 0.078731
vt 0.227273 0.078731
vt 0.181819 0.157461
vt 0.727273 0.314921
vt 0.363637 0.157461
vt 0.545455 0.314921
vt 0.500000 0.078731
vt 0.409092 0.078731
vt 0.772727 0.078731
vt 0.863636 0.078731
vt 0.454546 0.472382
vt 0.636364 0.472382
vt 0.818182 0.472382
vt 0.090910 0.472382
vt 0.272728 0.472382
vt 0.454546 0.472382
vt 0.636364 0.472382
vt 0.818182 0.472382
vt 0.090910 0.472382
vt 0.272728 0.472382
vt 0.590909 0.078731
vt 0.681818 0.078731
vt 0.136365 0.078731
vt 0.954545 0.078731
vt 0.545455 0.157461
vt 0.954545 0.078731
vt 0.136365 0.078731
vt 0.318182 0.236191
vt 0.227273 0.078731
vt 0.318182 0.078731
vt 0.318182 0.078731
vt 0.227273 0.078731
vt 0.409092 0.236191
vt 0.181819 0.157461
vt 0.136365 0.236191
vt 0.227273 0.236191
vt 0.500000 0.078731
vt 0.409092 0.078731
vt 0.500000 0.078731
vt 0.409092 0.078731
vt 0.772727 0.078731
vt 0.863636 0.078731
vt 0.772727 0.078731
vt 0.863636 0.078731
vt 0.500000 0.236191
vt 0.909091 0.157461
vt 0.590909 0.236191
vt 0.272728 0.314921
vt 0.909091 0.157461
vt 0.590909 0.078731
vt 0.681818 0.078731
vt 0.090910 0.314921
vt 0.590909 0.078731
vt 0.681818 0.078731
vt 0.727273 0.157461
vt 0.636364 0.314921
vt 0.727273 0.157461
vt 0.454546 0.314921
vt 0.545455 0.157461
vt 0.136365 0.393651
vt 0.227273 0.393651
vt 0.318182 0.236191
vt 0.409092 0.393651
vt 0.318182 0.393651
vt 0.045455 0.393651
vt 0.863636 0.393651
vt 0.681818 0.393651
vt 0.772727 0.393651
vt 0.500000 0.393651
vt 0.590909 0.393651
vt 0.136365 0.236191
vt 0.227273 0.236191
vt 0.863636 0.236191
vt 0.863636 0.236191
vt 0.045455 0.236191
vt 0.954545 0.236191
vt 0.681818 0.236191
vt 0.772727 0.236191
vt 0.772727 0.236191
vt 0.500000 0.236191
vt 0.590909 0.236191
vt 0.272728 0.314921
vt 0.090910 0.314921
vt 0.818182 0.314921
vt 0.818182 0.314921
vt 0.636364 0.314921
vt 0.454546 0.314921
vt 0.136365 0.393651
vt 0.227273 0.393651
vt 0.136365 0.393651
vt 0.227273 0.393651
vt 0.409092 0.393651
vt 0.318182 0.393651
vt 0.409092 0.393651
vt 0.318182 0.393651
vt 0.863636 0.393651
vt 0.045455 0.393651
vt 0.863636 0.393651
vt 0.045455 0.393651
vt 0.681818 0.393651
vt 0.772727 0.393651
vt 0.772727 0.393651
vt 0.681818 0.393651
vt 0.500000 0.393651
vt 0.590909 0.393651
vt 0.500000 0.393651
vt 0.590909 0.393651
vt 0.705631 0.194947
vt 0.930733 0.194947
vt 0.689127 0.157461
vt 0.947237 0.157461
vt 0.612552 0.356164
vt 0.114721 0.356164
vt 0.571836 0.360616
vt 0.155437 0.360616
vt 0.519073 0.360616
vt 0.208201 0.360616
vt 0.651080 0.340411
vt 0.076193 0.340411
vt 0.688313 0.314921
vt 0.038961 0.314921
vt 0.019480 0.281181
vt 0.707793 0.281181
vt 0.928571 0.281181
vt 0.711252 0.236191
vt 0.925112 0.236191
vt 0.530739 0.131971
vt 0.196535 0.131971
vt 0.569267 0.116218
vt 0.158007 0.116218
vt 0.609982 0.111766
vt 0.662746 0.111766
vt 0.117292 0.111766
vt 0.973619 0.111766
vt 0.346712 0.157461
vt 0.983073 0.146808
vt 0.358842 0.149156
vt 0.970942 0.138503
vt 0.325475 0.223559
vt 0.104637 0.221342
vt 0.336665 0.165447
vt 0.993198 0.157461
vt 0.996599 0.163351
vt 0.333264 0.171337
vt 0.087509 0.163351
vt 0.432039 0.353904
vt 0.030554 0.360971
vt 0.378729 0.341061
vt 0.348545 0.341061
vt 0.068036 0.331175
vt 0.881821 0.362155
vt 0.435249 0.354544
vt 0.027270 0.362155
vt 0.473069 0.347005
vt 0.843126 0.348204
vt 0.488127 0.343377
vt 0.832539 0.339788
vt 0.505710 0.337470
vt 0.221564 0.337470
vt 0.820627 0.329487
vt 0.337687 0.314921
vt 0.085307 0.306624
vt 0.339161 0.324807
vt 0.077420 0.314921
vt 0.325678 0.249174
vt 0.105522 0.247235
vt 0.337335 0.314123
vt 0.085658 0.305826
vt 0.323053 0.236191
vt 0.107639 0.236191
vt 0.485099 0.111411
vt 0.886584 0.118478
vt 0.427276 0.110227
vt 0.481816 0.110227
vt 0.889794 0.117838
vt 0.520114 0.139245
vt 0.207160 0.139245
vt 0.836785 0.130475
vt 0.377994 0.132594
vt 0.942672 0.129005
vt 0.388581 0.124178
vt 0.927615 0.125377
vt 0.344416 0.124169
vt 0.708081 0.124169
vt 0.300988 0.108512
vt 0.244468 0.108512
vt 0.750527 0.115708
vt 0.409109 0.236161
vt 0.619649 0.236161
vt 0.409111 0.236191
vt 0.619646 0.236191
vt 0.253512 0.348204
vt 0.798984 0.348204
vt 0.392756 0.323691
vt 0.651188 0.314921
vt 0.394064 0.314921
vt 0.644193 0.307561
vt 0.346546 0.344524
vt 0.380728 0.344524
vt 0.663217 0.335754
vt 0.253536 0.348213
vt 0.798961 0.348213
vt 0.296746 0.356522
vt 0.698231 0.363588
vt 0.755533 0.363870
vt 0.295982 0.356674
vt 0.699013 0.363870
vt 0.395613 0.311404
vt 0.642644 0.304043
vt 0.409107 0.236218
vt 0.619650 0.236218
vt 0.386311 0.157461
vt 0.653986 0.148011
vt 0.395223 0.164545
vt 0.645004 0.157461
vt 0.399543 0.172027
vt 0.640684 0.164943
vt 0.370060 0.146335
vt 0.670237 0.136885
vt 0.344439 0.124178
vt 0.708057 0.124178
vt 0.801091 0.127858
vt 0.208672 0.136628
vt 0.835273 0.127858
vt 0.243686 0.108794
vt 0.751291 0.115860
s 0
f 1/1/1 37/72/1 35/70/1
f 37/73/2 103/178/2 5/17/2
f 1/2/3 35/69/3 45/85/3
f 52/94/4 1/3/4 45/84/4
f 52/93/5 43/80/5 1/4/5
f 5/17/6 106/184/6 107/187/6
f 8/22/7 40/77/7 66/114/7
f 12/26/8 48/89/8 68/116/8
f 92/151/9 93/153/9 55/98/9
f 67/115/10 5/17/10 61/105/10
f 8/22/11 66/114/11 70/118/11
f 12/26/12 68/116/12 72/121/12
f 17/31/13 76/125/13 82/132/13
f 20/39/14 77/126/14 87/142/14
f 89/145/15 25/47/15 78/127/15
f 95/157/16 94/155/16 90/148/16
f 108/189/17 84/135/17 109/191/17
f 90/147/18 31/59/18 84/135/18
f 90/147/19 108/189/19 110/195/19
f 95/159/20 111/197/20 112/199/20
f 89/146/21 31/60/21 90/148/21
f 89/146/22 94/155/22 96/161/22
f 97/163/23 89/146/23 96/161/23
f 89/145/24 87/141/24 31/61/24
f 78/127/25 87/141/25 89/145/25
f 78/127/26 20/40/26 87/141/26
f 87/142/27 82/131/27 31/62/27
f 87/142/28 77/126/28 82/131/28
f 77/126/29 17/31/29 82/131/29
f 31/63/30 82/132/30 84/136/30
f 84/136/31 82/132/31 76/125/31
f 84/136/32 114/204/32 115/206/32
f 25/47/33 97/163/33 98/166/33
f 78/127/34 25/47/34 72/121/34
f 72/121/35 68/116/35 78/127/35
f 68/116/36 20/40/36 78/127/36
f 70/118/37 77/126/37 20/39/37
f 70/118/38 66/114/38 77/126/38
f 66/114/39 17/31/39 77/126/39
f 67/115/40 76/125/40 17/31/40
f 76/125/41 67/115/41 61/105/41
f 117/210/42 76/125/42 116/208/42
f 72/121/43 98/166/43 99/168/43
f 72/121/44 92/151/44 55/98/44
f 72/121/45 55/98/45 12/26/45
f 68/116/46 70/119/46 20/40/46
f 68/116/47 48/89/47 70/119/47
f 48/89/48 8/21/48 70/119/48
f 66/114/49 67/115/49 17/31/49
f 66/114/50 40/77/50 67/115/50
f 40/77/51 5/17/51 67/115/51
f 61/105/52 118/212/52 116/208/52
f 118/212/53 61/105/53 105/182/53
f 43/80/54 121/219/54 119/214/54
f 43/80/55 101/172/55 100/170/55
f 52/93/56 102/174/56 101/172/56
f 52/94/57 93/153/57 102/175/57
f 55/98/58 52/94/58 45/84/58
f 12/26/59 55/98/59 45/84/59
f 45/85/60 48/89/60 12/26/60
f 45/85/61 35/69/61 48/89/61
f 35/69/62 8/21/62 48/89/62
f 123/224/63 43/81/63 120/216/63
f 37/73/64 122/222/64 104/180/64
f 1/5/65 43/81/65 37/73/65
f 35/70/66 40/77/66 8/22/66
f 35/70/67 37/72/67 40/77/67
f 37/72/68 5/17/68 40/77/68
f 3/11/1 38/75/1 33/66/1
f 38/74/2 124/226/2 125/228/2
f 46/87/3 3/12/3 33/67/3
f 3/13/4 46/86/4 54/97/4
f 3/14/5 54/96/5 44/82/5
f 69/117/8 10/24/8 51/92/8
f 13/27/9 57/100/9 71/120/9
f 14/28/69 59/102/69 74/123/69
f 10/24/12 69/117/12 73/122/12
f 13/27/70 71/120/70 75/124/70
f 74/123/71 126/231/71 14/28/71
f 95/160/13 128/235/13 83/134/13
f 86/140/14 97/164/14 96/162/14
f 22/43/15 79/128/15 88/144/15
f 27/49/16 80/129/16 91/150/16
f 129/237/17 81/130/17 131/242/17
f 91/149/18 30/54/18 85/137/18
f 91/149/19 85/137/19 81/130/19
f 81/130/20 27/49/20 91/149/20
f 91/150/21 88/143/21 30/55/21
f 91/150/22 80/129/22 88/143/22
f 80/129/23 22/43/23 88/143/23
f 88/144/24 86/139/24 30/56/24
f 79/128/25 86/139/25 88/144/25
f 86/139/26 79/128/26 18/32/26
f 30/57/27 86/140/27 83/133/27
f 94/156/28 86/140/28 96/162/28
f 95/158/29 83/133/29 94/156/29
f 30/58/30 83/134/30 85/138/30
f 83/134/31 132/244/31 134/249/31
f 131/241/32 85/138/32 133/246/32
f 81/130/72 135/251/72 136/253/72
f 74/123/73 136/253/73 127/233/73
f 74/123/74 27/49/74 81/130/74
f 75/124/75 80/129/75 27/49/75
f 75/124/76 71/120/76 80/129/76
f 71/120/33 22/43/33 80/129/33
f 73/122/34 79/128/34 22/43/34
f 73/122/35 69/117/35 79/128/35
f 18/32/36 79/128/36 69/117/36
f 18/33/37 98/165/37 97/164/37
f 74/123/77 75/124/77 27/49/77
f 74/123/78 59/102/78 75/124/78
f 59/102/79 13/27/79 75/124/79
f 71/120/43 73/122/43 22/43/43
f 71/120/44 57/100/44 73/122/44
f 57/100/45 10/24/45 73/122/45
f 69/117/46 98/167/46 18/32/46
f 92/152/47 69/117/47 51/92/47
f 92/152/48 51/92/48 93/154/48
f 138/257/80 14/28/80 139/259/80
f 59/102/54 14/28/54 44/82/54
f 44/82/55 54/96/55 59/102/55
f 54/96/56 13/27/56 59/102/56
f 54/97/57 57/100/57 13/27/57
f 54/97/58 46/86/58 57/100/58
f 46/86/59 10/24/59 57/100/59
f 51/92/60 10/24/60 46/87/60
f 46/87/61 33/67/61 51/92/61
f 33/67/62 93/154/62 51/92/62
f 44/83/63 137/255/63 140/261/63
f 44/83/81 141/263/81 124/226/81
f 3/15/65 44/83/65 38/74/65
f 33/66/66 101/173/66 102/176/66
f 38/75/67 101/173/67 33/66/67
f 38/75/68 143/268/68 142/266/68
f 2/6/1 23/45/1 21/41/1
f 4/16/2 23/44/2 26/48/2
f 29/53/3 2/7/3 21/42/3
f 32/65/4 2/8/4 29/52/4
f 2/9/5 32/64/5 28/50/5
f 4/16/6 26/48/6 36/71/6
f 41/78/7 6/18/7 24/46/7
f 139/260/9 7/20/9 138/258/9
f 9/23/69 34/68/69 47/88/69
f 4/16/10 36/71/10 42/79/10
f 6/18/11 41/78/11 105/183/11
f 49/90/70 139/260/70 126/232/70
f 9/23/71 47/88/71 39/76/71
f 11/25/13 50/91/13 60/104/13
f 53/95/14 63/108/14 108/190/14
f 134/248/15 132/245/15 64/111/15
f 65/113/16 15/29/16 56/99/16
f 16/30/17 58/101/17 62/106/17
f 62/106/18 65/112/18 19/34/18
f 62/106/19 58/101/19 65/112/19
f 58/101/20 15/29/20 65/112/20
f 64/110/21 19/35/21 65/113/21
f 56/99/22 64/110/22 65/113/22
f 64/110/23 129/238/23 131/243/23
f 64/111/24 63/109/24 19/36/24
f 63/109/82 132/245/82 128/236/82
f 63/109/26 111/198/26 110/194/26
f 19/37/27 63/108/27 60/103/27
f 63/108/28 53/95/28 60/103/28
f 60/103/29 53/95/29 11/25/29
f 60/104/30 62/107/30 19/38/30
f 60/104/31 50/91/31 62/107/31
f 50/91/32 16/30/32 62/107/32
f 39/76/72 58/101/72 16/30/72
f 39/76/83 47/88/83 58/101/83
f 47/88/74 15/29/74 58/101/74
f 56/99/75 15/29/75 49/90/75
f 49/90/76 136/254/76 135/252/76
f 130/240/33 56/99/33 135/252/33
f 114/205/37 53/95/37 115/207/37
f 116/209/38 41/78/38 117/211/38
f 53/95/39 41/78/39 11/25/39
f 42/79/40 50/91/40 11/25/40
f 42/79/41 36/71/41 50/91/41
f 36/71/42 16/30/42 50/91/42
f 47/88/77 49/90/77 15/29/77
f 47/88/78 34/68/78 49/90/78
f 49/90/79 34/68/79 7/20/79
f 107/186/48 106/185/48 6/19/48
f 41/78/49 42/79/49 11/25/49
f 41/78/50 24/46/50 42/79/50
f 24/46/51 4/16/51 42/79/51
f 36/71/52 39/76/52 16/30/52
f 36/71/53 26/48/53 39/76/53
f 26/48/80 9/23/80 39/76/80
f 28/50/54 34/68/54 9/23/54
f 28/50/55 32/64/55 34/68/55
f 7/20/56 34/68/56 32/64/56
f 7/20/57 32/65/57 140/262/57
f 29/52/58 125/230/58 124/227/58
f 143/269/59 29/52/59 142/265/59
f 119/215/60 142/267/60 29/53/60
f 29/53/61 123/225/61 120/218/61
f 21/42/62 103/179/62 104/181/62
f 26/48/63 28/51/63 9/23/63
f 26/48/64 23/44/64 28/51/64
f 23/44/65 2/10/65 28/51/65
f 6/18/66 21/41/66 24/46/66
f 21/41/67 23/45/67 24/46/67
f 23/45/68 4/16/68 24/46/68
f 37/73/2 104/180/2 103/178/2
f 105/182/6 61/105/6 5/17/6
f 5/17/6 103/178/6 106/184/6
f 107/187/6 105/182/6 5/17/6
f 110/195/19 111/197/19 90/147/19
f 90/147/19 84/135/19 108/189/19
f 112/199/20 113/201/20 95/159/20
f 95/159/20 90/147/20 111/197/20
f 89/146/22 90/148/22 94/155/22
f 97/163/23 25/47/23 89/146/23
f 115/206/32 109/192/32 84/136/32
f 84/136/32 76/125/32 114/204/32
f 117/210/42 114/204/42 76/125/42
f 76/125/42 61/105/42 116/208/42
f 72/121/43 25/47/43 98/166/43
f 72/121/44 99/168/44 92/151/44
f 119/214/54 120/217/54 43/80/54
f 43/80/54 100/170/54 121/219/54
f 43/80/55 52/93/55 101/172/55
f 52/94/57 55/98/57 93/153/57
f 123/224/63 122/222/63 43/81/63
f 37/73/64 43/81/64 122/222/64
f 74/123/84 127/233/84 126/231/84
f 95/160/13 113/202/13 128/235/13
f 86/140/14 18/33/14 97/164/14
f 129/237/17 130/239/17 81/130/17
f 81/130/17 85/137/17 131/242/17
f 94/156/28 83/133/28 86/140/28
f 133/246/31 85/138/31 83/134/31
f 83/134/31 128/235/31 132/244/31
f 134/249/31 133/246/31 83/134/31
f 81/130/72 130/239/72 135/251/72
f 74/123/83 81/130/83 136/253/83
f 69/117/46 99/169/46 98/167/46
f 92/152/47 99/169/47 69/117/47
f 138/257/80 137/255/80 14/28/80
f 14/28/80 126/231/80 139/259/80
f 33/67/62 102/177/62 93/154/62
f 44/83/63 14/28/63 137/255/63
f 124/226/64 38/74/64 44/83/64
f 44/83/64 140/261/64 141/263/64
f 38/75/67 100/171/67 101/173/67
f 121/220/68 100/171/68 38/75/68
f 38/75/68 125/229/68 143/268/68
f 142/266/68 121/220/68 38/75/68
f 105/183/11 107/188/11 6/18/11
f 41/78/11 118/213/11 105/183/11
f 126/232/85 127/234/85 49/90/85
f 49/90/70 7/20/70 139/260/70
f 109/193/14 115/207/14 53/95/14
f 63/108/14 110/196/14 108/190/14
f 108/190/14 109/193/14 53/95/14
f 133/247/23 134/250/23 64/110/23
f 64/110/23 56/99/23 129/238/23
f 131/243/23 133/247/23 64/110/23
f 113/203/25 112/200/25 63/109/25
f 63/109/25 64/111/25 132/245/25
f 128/236/25 113/203/25 63/109/25
f 63/109/26 112/200/26 111/198/26
f 135/252/76 56/99/76 49/90/76
f 49/90/86 127/234/86 136/254/86
f 130/240/33 129/238/33 56/99/33
f 114/205/37 117/211/37 53/95/37
f 116/209/38 118/213/38 41/78/38
f 41/78/38 53/95/38 117/211/38
f 137/256/57 138/258/57 7/20/57
f 32/65/57 141/264/57 140/262/57
f 140/262/57 137/256/57 7/20/57
f 141/264/58 32/65/58 29/52/58
f 29/52/58 143/269/58 125/230/58
f 124/227/87 141/264/87 29/52/87
f 119/215/60 121/221/60 142/267/60
f 120/218/61 119/215/61 29/53/61
f 29/53/61 21/42/61 123/225/61
f 122/223/62 123/225/62 21/42/62
f 21/42/62 6/19/62 106/185/62
f 21/42/62 106/185/62 103/179/62
f 104/181/62 122/223/62 21/42/62
